<svg width="105" height="105" viewBox="0 0 105 105" xmlns="http://www.w3.org/2000/svg"><g id="svgGroup" stroke-linecap="round" fill-rule="evenodd" font-size="9pt" stroke="#c691ff" stroke-width="0.75mm" fill="#c691ff" style="stroke:#c691ff;stroke-width:0.75mm;fill:#c691ff"><path d="M 90 105 L 15 105 L 15 90 L 0 90 L 0 75 L 30 75 L 30 90 L 75 90 L 75 60 L 15 60 L 15 45 L 0 45 L 0 15 L 15 15 L 15 0 L 90 0 L 90 15 L 105 15 L 105 30 L 75 30 L 75 15 L 30 15 L 30 45 L 90 45 L 90 60 L 105 60 L 105 90 L 90 90 L 90 105 Z" vector-effect="non-scaling-stroke"/></g></svg>