<svg width="1065" height="105" viewBox="0 0 1065 105" xmlns="http://www.w3.org/2000/svg"><g id="svgGroup" stroke-linecap="round" fill-rule="evenodd" font-size="9pt" stroke="#ffffff" stroke-width="0.25mm" fill="#ffffff" style="stroke:#ffffff;stroke-width:0.25mm;fill:#ffffff"><path d="M 90 105 L 15 105 L 15 90 L 0 90 L 0 75 L 30 75 L 30 90 L 75 90 L 75 60 L 15 60 L 15 45 L 0 45 L 0 15 L 15 15 L 15 0 L 90 0 L 90 15 L 105 15 L 105 30 L 75 30 L 75 15 L 30 15 L 30 45 L 90 45 L 90 60 L 105 60 L 105 90 L 90 90 L 90 105 Z M 270 105 L 240 105 L 240 0 L 270 0 L 270 30 L 330 30 L 330 45 L 345 45 L 345 105 L 315 105 L 315 45 L 270 45 L 270 105 Z M 225 105 L 135 105 L 135 90 L 120 90 L 120 45 L 135 45 L 135 30 L 225 30 L 225 45 L 150 45 L 150 90 L 225 90 L 225 105 Z M 450 105 L 375 105 L 375 90 L 360 90 L 360 45 L 375 45 L 375 30 L 450 30 L 450 45 L 465 45 L 465 75 L 390 75 L 390 90 L 450 90 L 450 105 Z M 705 105 L 615 105 L 615 90 L 600 90 L 600 30 L 630 30 L 630 90 L 675 90 L 675 30 L 705 30 L 705 105 Z M 930 105 L 855 105 L 855 90 L 840 90 L 840 45 L 855 45 L 855 30 L 930 30 L 930 45 L 945 45 L 945 75 L 870 75 L 870 90 L 930 90 L 930 105 Z M 585 105 L 495 105 L 495 90 L 480 90 L 480 45 L 495 45 L 495 30 L 555 30 L 555 0 L 585 0 L 585 105 Z M 825 105 L 735 105 L 735 90 L 765 90 L 765 15 L 750 15 L 750 0 L 795 0 L 795 90 L 825 90 L 825 105 Z M 1005 30 L 1005 45 L 1020 45 L 1020 60 L 1005 60 L 1005 105 L 975 105 L 975 30 L 1005 30 Z M 510 45 L 510 90 L 555 90 L 555 45 L 510 45 Z M 390 45 L 390 60 L 435 60 L 435 45 L 390 45 Z M 870 45 L 870 60 L 915 60 L 915 45 L 870 45 Z M 1020 45 L 1065 45 L 1065 30 L 1020 30 L 1020 45 Z" vector-effect="non-scaling-stroke"/></g></svg>